<svg xmlns="http://www.w3.org/2000/svg" width="898.3200000000002" height="251.20499999999998" viewBox="-48.585 -167.97 898.3200000000002 251.20499999999998">
<style>.letter-0 {
  fill: none; stroke: #3a6449; stroke-width: 2;
  stroke-linecap: round; stroke-linejoin: round;
  stroke-dasharray: 1704.6; stroke-dashoffset: 1704.6;
  animation: write0 1.7s ease-in-out forwards;
  animation-delay: 0.000s;
}
@keyframes write0 {
  to { stroke-dashoffset: 0; }
}
.letter-1 {
  fill: none; stroke: #3a6449; stroke-width: 2;
  stroke-linecap: round; stroke-linejoin: round;
  stroke-dasharray: 785.7; stroke-dashoffset: 785.7;
  animation: write1 1.7s ease-in-out forwards;
  animation-delay: 0.255s;
}
@keyframes write1 {
  to { stroke-dashoffset: 0; }
}
.letter-2 {
  fill: none; stroke: #3a6449; stroke-width: 2;
  stroke-linecap: round; stroke-linejoin: round;
  stroke-dasharray: 538.62; stroke-dashoffset: 538.62;
  animation: write2 1.7s ease-in-out forwards;
  animation-delay: 0.510s;
}
@keyframes write2 {
  to { stroke-dashoffset: 0; }
}
.letter-3 {
  fill: none; stroke: #3a6449; stroke-width: 2;
  stroke-linecap: round; stroke-linejoin: round;
  stroke-dasharray: 436.21; stroke-dashoffset: 436.21;
  animation: write3 1.7s ease-in-out forwards;
  animation-delay: 0.765s;
}
@keyframes write3 {
  to { stroke-dashoffset: 0; }
}
.letter-4 {
  fill: none; stroke: #3a6449; stroke-width: 2;
  stroke-linecap: round; stroke-linejoin: round;
  stroke-dasharray: 307.35; stroke-dashoffset: 307.35;
  animation: write4 1.7s ease-in-out forwards;
  animation-delay: 1.020s;
}
@keyframes write4 {
  to { stroke-dashoffset: 0; }
}
.letter-5 {
  fill: none; stroke: #3a6449; stroke-width: 2;
  stroke-linecap: round; stroke-linejoin: round;
  stroke-dasharray: 441.68; stroke-dashoffset: 441.68;
  animation: write5 1.7s ease-in-out forwards;
  animation-delay: 1.275s;
}
@keyframes write5 {
  to { stroke-dashoffset: 0; }
}
.letter-6 {
  fill: none; stroke: #3a6449; stroke-width: 2;
  stroke-linecap: round; stroke-linejoin: round;
  stroke-dasharray: 2043.09; stroke-dashoffset: 2043.09;
  animation: write6 1.7s ease-in-out forwards;
  animation-delay: 1.530s;
}
@keyframes write6 {
  to { stroke-dashoffset: 0; }
}
.letter-7 {
  fill: none; stroke: #3a6449; stroke-width: 2;
  stroke-linecap: round; stroke-linejoin: round;
  stroke-dasharray: 482.11; stroke-dashoffset: 482.11;
  animation: write7 1.7s ease-in-out forwards;
  animation-delay: 1.785s;
}
@keyframes write7 {
  to { stroke-dashoffset: 0; }
}
</style>
<g><path d="M223.75-117.81L223.75-117.81Q227.75-117.81 229.74-115.45Q231.73-113.08 231.73-110.04L231.73-110.04Q231.73-104.05 228.58-98.17Q225.44-92.30 220.50-86.68Q215.56-81.06 209.58-75.81Q203.59-70.56 197.82-65.73L197.82-65.73L193.20-61.84Q186.48-44.63 178.50-29.82Q170.52-15.01 160.65-3.78L160.65-3.78Q151.20 6.61 139.70 13.81Q128.20 21 115.45 25.52Q102.69 30.03 88.99 32.08Q75.28 34.13 61.32 34.13L61.32 34.13Q52.18 34.13 44.57 32.39Q36.96 30.66 30.66 28.04L30.66 28.04Q18.48 31.29 6.25 33.60Q-5.98 35.91-18.59 36.64L-18.59 36.64L-18.59 33.60Q-6.83 33.07 4.78 31.39Q16.38 29.71 27.82 26.77L27.82 26.77Q21.21 23.41 16.01 18.85Q10.81 14.28 7.35 8.92L7.35 8.92Q3.67 3.25 1.57-3.62Q-0.53-10.50-0.53-18.90L-0.53-18.90Q-0.53-32.02 5.25-45.15L5.25-45.15Q10.81-57.64 20.16-67.15Q29.50-76.65 41.16-83.05Q52.81-89.46 65.94-92.72Q79.06-95.97 92.19-95.97L92.19-95.97Q97.55-95.97 103.21-95.13Q108.88-94.29 114.19-92.45Q119.49-90.61 124.16-87.83Q128.84-85.05 132.35-81.11Q135.87-77.17 137.92-72.03Q139.97-66.88 139.97-60.48L139.97-60.48Q139.97-55.34 138.02-50.50Q136.08-45.67 132.77-41.53Q129.47-37.38 125.05-34.02Q120.64-30.66 115.71-28.56L115.71-28.56L115.19-29.50Q118.96-32.02 122.17-35.33Q125.37-38.64 127.68-42.58Q129.99-46.52 131.30-50.92Q132.62-55.34 132.62-59.95L132.62-59.95Q132.62-68.46 128.78-74.71Q124.95-80.95 118.75-85.00Q112.56-89.04 104.69-91.03Q96.81-93.03 88.62-93.03L88.62-93.03Q76.33-93.03 64.10-89.67Q51.87-86.31 40.95-80.01Q30.03-73.71 21.26-64.68Q12.49-55.65 7.14-44.31L7.14-44.31Q4.41-38.01 2.94-31.61Q1.47-25.20 1.47-18.90L1.47-18.90Q1.47-10.71 3.41-4.25Q5.35 2.21 8.92 7.77L8.92 7.77Q12.49 13.33 18.11 18.01Q23.73 22.68 30.97 25.93L30.97 25.93Q49.14 21 66.47 13.86Q83.79 6.72 100.38-1.89L100.38-1.89Q113.08-8.50 125.11-15.70Q137.13-22.89 148.26-30.40Q159.39-37.91 169.36-45.41Q179.34-52.92 188.06-60.16L188.06-60.16Q190.36-64.68 192.67-70.40Q194.98-76.13 197.29-82.11L197.29-82.11Q199.92-88.94 202.60-95.39Q205.28-101.85 208.37-106.84Q211.47-111.83 215.25-114.82Q219.03-117.81 223.75-117.81ZM133.66 5.14L133.66 5.14Q149.63-7.14 162.70-22.68Q175.77-38.22 185.53-55.54L185.53-55.54Q177.13-48.72 167.47-41.58Q157.81-34.44 147.21-27.35Q136.60-20.27 125.05-13.39Q113.50-6.51 101.22-0.21L101.22-0.21Q84.84 8.29 68.04 15.22Q51.24 22.15 33.91 27.09L33.91 27.09Q39.80 29.29 46.62 30.71Q53.45 32.13 61.32 32.13L61.32 32.13Q71.61 32.13 81.27 30.13Q90.93 28.14 100.01 24.57Q109.09 21 117.49 16.06Q125.89 11.13 133.66 5.14ZM194.88-65.83L197.92-68.46Q200.97-70.98 204.54-74.02Q208.11-77.07 211.68-80.43Q215.25-83.79 218.50-87.36Q221.76-90.93 224.23-94.71Q226.69-98.49 228.22-102.32Q229.74-106.16 229.74-110.04L229.74-110.04Q229.74-112.35 228.22-114.08Q226.69-115.81 223.75-115.81L223.75-115.81Q219.55-115.81 215.98-112.19Q212.41-108.57 209.37-103.06Q206.32-97.55 203.86-90.98Q201.39-84.42 199.39-78.54L199.39-78.54Q198.24-75.18 197.14-71.87Q196.03-68.56 194.88-65.83L194.88-65.83Z" class="letter-0"/></g>
<g><path d="M206.01-1.36L206.01-1.36Q210.31-1.36 214.93-5.14Q219.55-8.92 224.28-14.49L224.28-14.49Q225.75-16.06 227.06-17.75Q228.38-19.43 229.74-21.21L229.74-21.21L231.42-23.31Q232.26-24.36 233.31-25.78Q234.36-27.20 236.51-30.29Q238.66-33.39 242.34-38.74Q246.01-44.10 252-52.92L252-52.92L265.54-52.92L255.36-39.59Q253.78-37.38 251.32-33.91Q248.85-30.45 245.86-26.30Q242.86-22.15 239.50-17.43Q236.14-12.71 232.89-7.98L232.89-7.98Q231.52-6.09 230.05-3.83Q228.58-1.57 226.90 0.84L226.90 0.84Q226.06 2.31 225.59 2.99Q225.12 3.67 223.96 5.25L223.96 5.25Q233.52 0.94 242.18-5.72Q250.84-12.39 257.46-20.16L257.46-20.16Q258.51-21.52 259.82-23.10Q261.13-24.68 262.19-26.04L262.19-26.04L263.55-24.46L261.66-22.05Q261.13-21.21 260.40-20.37Q259.66-19.53 259.03-18.79L259.03-18.79Q255.46-14.70 251.05-10.66Q246.64-6.61 241.81-2.99Q236.98 0.63 231.84 3.67Q226.69 6.72 221.65 8.82L221.65 8.82Q218.71 13.13 215.56 17.69Q212.41 22.26 209.05 26.62Q205.69 30.97 202.12 35.02Q198.55 39.06 194.88 42.42L194.88 42.42Q192.67 44.41 190.21 46.36Q187.74 48.30 185.01 49.82Q182.28 51.34 179.34 52.29Q176.40 53.23 173.25 53.23L173.25 53.23Q169.78 53.23 167.26 51.08Q164.74 48.93 164.74 45.15L164.74 45.15Q164.74 41.89 166.16 38.64Q167.58 35.38 169.68 32.87L169.68 32.87Q171.78 30.34 174.77 27.56Q177.76 24.78 181.75 22.36L181.75 22.36Q184.69 20.58 187.95 19.00Q191.20 17.43 194.46 16.12Q197.71 14.80 200.86 13.70Q204.01 12.60 206.74 11.65L206.74 11.65L211.47 10.19Q213.36 7.14 215.20 4.15Q217.03 1.16 218.61-1.47L218.61-1.47L225.22-12.18L226.17-13.54L225.85-13.13Q223.44-10.19 220.92-7.67Q218.40-5.14 215.88-3.25Q213.36-1.36 210.84-0.32Q208.32 0.73 205.80 0.73L205.80 0.73Q199.81 0.73 197.45-1.21Q195.09-3.15 195.09-6.30L195.09-6.30Q195.09-8.29 196.03-10.87Q196.98-13.44 198.66-16.27Q200.34-19.11 202.44-22.10Q204.54-25.09 206.95-28.14L206.95-28.14L211.68-34.02Q213.57-36.33 215.51-38.80Q217.45-41.27 218.98-43.42Q220.50-45.57 221.50-47.30Q222.49-49.03 222.49-49.98L222.49-49.98Q222.49-50.82 221.76-50.82L221.76-50.82Q220.81-50.82 219.19-49.45Q217.56-48.09 215.46-45.67Q213.36-43.26 210.89-40.06Q208.42-36.85 205.69-33.28L205.69-33.28Q203.91-30.97 201.97-28.40Q200.02-25.83 198.13-23.41L198.13-23.41L196.77-24.99Q198.55-27.30 200.50-29.82Q202.44-32.34 204.12-34.55L204.12-34.55Q206.95-38.32 209.53-41.63Q212.10-44.94 214.36-47.46Q216.61-49.98 218.61-51.45Q220.60-52.92 222.18-52.92L222.18-52.92Q224.80-52.92 226.27-51.40Q227.74-49.88 227.74-47.25L227.74-47.25Q227.74-42.84 223.86-36.02Q219.97-29.19 214.30-20.47L214.30-20.47Q212.41-17.64 210.63-14.91Q208.84-12.18 207.53-9.87Q206.22-7.56 205.38-5.72Q204.54-3.88 204.54-2.73L204.54-2.73Q204.54-1.36 206.01-1.36ZM192.04 37.91L192.04 37.91Q196.45 32.66 201.07 26.04Q205.69 19.43 209.68 13.13L209.68 13.13Q209.26 13.33 208.90 13.39Q208.53 13.44 208.21 13.54L208.21 13.54L207.27 13.75L207.48 13.75Q201.18 15.75 195.14 18.06Q189.10 20.37 183.01 24.15L183.01 24.15Q179.34 26.46 176.35 29.08Q173.35 31.71 171.36 34.13L171.36 34.13Q169.57 36.43 168.16 39.27Q166.74 42.10 166.74 45.25L166.74 45.25Q166.74 47.67 168.42 49.40Q170.10 51.13 172.83 51.13L172.83 51.13Q175.56 51.13 178.29 49.77Q181.02 48.41 183.54 46.41Q186.06 44.41 188.26 42.10Q190.47 39.80 192.04 37.91Z" class="letter-1"/></g>
<g><path d="M263.34-9.55L263.34-9.55Q263.34-13.13 264.60-17.11Q265.86-21.11 267.86-25.25Q269.85-29.40 272.32-33.44Q274.79-37.48 277.20-41.05L277.20-41.05Q272.58-35.80 268.06-30.03L268.06-30.03L265.96-27.40L264.92-26.04L264.92-26.14Q264.50-25.62 263.81-24.78Q263.13-23.94 262.71-23.41L262.71-23.41L261.35-24.99L265.96-30.77Q270.38-36.12 274.57-41.11Q278.77-46.09 282.13-48.82L282.13-48.82Q289.90-59.95 297.36-68.88Q304.81-77.80 311.85-84.11Q318.88-90.41 325.50-93.77Q332.12-97.13 338.20-97.13L338.20-97.13Q339.78-97.13 341.62-96.86Q343.45-96.60 345.03-95.92Q346.61-95.23 347.65-93.92Q348.70-92.61 348.70-90.41L348.70-90.41Q348.70-87.36 346.55-84.52Q344.40-81.69 341.36-79.17Q338.31-76.65 335.00-74.60Q331.69-72.55 329.28-71.19L329.28-71.19Q321.09-66.57 312.64-61.84Q304.19-57.12 296.73-52.81L296.73-52.81L296.94-52.92L292.43-46.30Q290.32-43.36 287.81-39.74Q285.29-36.12 282.76-32.29Q280.25-28.45 277.83-24.57Q275.42-20.68 273.58-17.27Q271.74-13.86 270.64-10.97Q269.54-8.08 269.54-6.30L269.54-6.30Q269.54-3.25 270.80-2.31Q272.06-1.36 273.21-1.36L273.21-1.36Q276.88-1.36 281.35-4.04Q285.81-6.72 290.22-10.55Q294.63-14.38 298.51-18.64Q302.40-22.89 304.92-26.04L304.92-26.04L306.29-24.46Q303.66-21.21 299.72-16.91Q295.79-12.60 291.22-8.66Q286.65-4.72 281.87-1.99Q277.10 0.73 272.79 0.73L272.79 0.73Q268.91 0.73 266.12-1.63Q263.34-3.99 263.34-9.55ZM328.44-72.77L328.44-72.77Q330.33-73.81 333.43-75.65Q336.52-77.49 339.52-79.91Q342.51-82.32 344.66-85.05Q346.81-87.78 346.81-90.51L346.81-90.51Q346.81-92.82 344.66-93.87Q342.51-94.92 340.31-94.92L340.31-94.92Q335.26-94.92 329.75-91.35Q324.24-87.78 318.83-82.16Q313.43-76.55 308.38-69.67Q303.35-62.79 299.14-56.17L299.14-56.17L304.08-59.01L303.98-59.01Q309.86-62.37 316.05-65.89Q322.25-69.41 328.44-72.77Z" class="letter-2"/></g>
<g><path d="M366.66-26.04L368.03-24.46Q366.45-22.36 364.04-19.79Q361.62-17.22 358.89-14.80L358.89-14.80Q355.00-11.45 350.96-8.92Q346.92-6.40 343.67-6.40L343.67-6.40Q341.15-6.40 339.73-8.35Q338.31-10.29 338.31-13.96L338.31-13.96Q334.74-10.92 330.80-7.88Q326.87-4.83 323.09-2.73L323.09-2.73Q320.78-1.36 318.36-0.32Q315.94 0.73 313.43 0.73L313.43 0.73Q307.23 0.73 304.81-1.36Q302.40-3.46 302.40-6.83L302.40-6.83Q302.40-8.82 303.40-11.34Q304.40-13.86 306.02-16.59Q307.65-19.32 309.80-22.26Q311.96-25.20 314.26-28.14L314.26-28.14L318.99-34.02Q320.88-36.33 322.82-38.80Q324.76-41.27 326.29-43.42Q327.81-45.57 328.81-47.30Q329.81-49.03 329.81-49.98L329.81-49.98Q329.81-50.19 329.70-50.50Q329.60-50.82 329.07-50.82L329.07-50.82Q327.81-50.82 325.19-48.04Q322.56-45.25 318.99-40.74L318.99-40.74L311.96-31.81L305.44-23.41L304.08-24.99L309.65-32.13Q311.75-34.86 313.69-37.38Q315.63-39.90 317.42-42.10L317.42-42.10Q321.09-46.73 324.19-49.93Q327.29-53.13 329.91-53.13L329.91-53.13Q332.64-53.13 333.90-51.50Q335.16-49.88 335.16-47.25L335.16-47.25Q335.16-45.05 334.11-42.26Q333.06-39.48 331.43-36.33Q329.81-33.18 327.65-29.77Q325.50-26.36 323.30-22.99L323.30-22.99L320.46-18.79Q318.78-16.27 317.21-13.86Q315.63-11.45 314.48-9.29Q313.32-7.14 312.59-5.46Q311.85-3.78 311.85-2.83L311.85-2.83Q311.85-1.89 312.53-1.63Q313.22-1.36 314.06-1.36L314.06-1.36Q316.05-1.36 318.31-2.42Q320.56-3.46 322.04-4.30L322.04-4.30Q326.03-6.51 330.38-9.92Q334.74-13.33 338.42-16.70L338.42-16.70Q338.73-20.27 340.73-25.62Q342.72-30.97 345.87-36.75L345.87-36.75Q348.18-41.05 350.81-44.84Q353.43-48.61 355.63-50.71L355.63-50.71Q356.58-51.55 357.42-52.03Q358.26-52.50 359.10-52.50L359.10-52.50Q360.36-52.50 360.78-51.40Q361.20-50.29 361.20-48.72L361.20-48.72Q360.99-43.99 358.79-39.48Q356.58-34.96 354.06-31.18L354.06-31.18Q351.01-26.77 347.39-22.52Q343.77-18.27 340.31-15.43L340.31-15.43Q340.20-14.91 340.20-13.96L340.20-13.96Q340.20-8.40 343.77-8.40L343.77-8.40Q345.13-8.40 346.81-9.13Q348.50-9.87 350.33-11.03Q352.17-12.18 354.11-13.65Q356.06-15.12 357.84-16.70L357.84-16.70Q360.47-19.11 362.83-21.63Q365.19-24.15 366.66-26.04L366.66-26.04Z" class="letter-3"/></g>
<g><path d="M403.52-73.50L403.52-73.50Q405.72-73.50 407.24-72.13Q408.77-70.77 408.77-68.67L408.77-68.67Q408.77-66.57 407.24-65.15Q405.72-63.73 403.52-63.73L403.52-63.73Q401.31-63.73 399.79-65.15Q398.27-66.57 398.27-68.67L398.27-68.67Q398.27-70.77 399.79-72.13Q401.31-73.50 403.52-73.50ZM389.66-52.92L403.10-52.92L398.37-46.73Q396.59-44.31 394.70-41.95Q392.81-39.59 391.02-37.17L391.02-37.17Q387.03-31.81 383.20-26.51Q379.37-21.21 375.69-15.85L375.69-15.85Q374.85-14.70 373.80-13.07Q372.75-11.45 371.81-9.76Q370.86-8.08 370.18-6.46Q369.50-4.83 369.50-3.67L369.50-3.67Q369.50-2.73 370.13-2.21Q370.76-1.68 372.65-1.68L372.65-1.68Q374.64-1.68 377.06-2.73Q379.47-3.78 382.15-5.67Q384.83-7.56 387.61-10.13Q390.39-12.71 393.12-15.64L393.12-15.64Q395.22-17.95 397.53-20.63Q399.84-23.31 401.94-26.04L401.94-26.04L403.31-24.46Q401.21-21.95 399-19.27Q396.80-16.59 394.70-14.28L394.70-14.28Q391.75-11.13 388.76-8.40Q385.77-5.67 382.88-3.73Q380.00-1.78 377.27-0.63Q374.54 0.53 372.23 0.53L372.23 0.53Q367.29 0.53 365.56-1.26Q363.83-3.04 363.83-5.77L363.83-5.77Q363.83-8.82 365.35-12.55Q366.87-16.27 368.66-19.53L368.66-19.53Q369.81-21.73 371.02-23.84Q372.23-25.93 373.75-28.51Q375.27-31.08 377.32-34.34Q379.37-37.59 382.31-42L382.31-42Q380.10-39.38 377.84-36.59Q375.59-33.81 373.38-31.08L373.38-31.08L367.19-23.41L365.82-24.99Q369.08-28.98 372.59-33.28Q376.11-37.59 379.37-41.42Q382.62-45.25 385.35-48.30Q388.08-51.34 389.66-52.92L389.66-52.92Z" class="letter-4"/></g>
<g><path d="M450.45-15.54L450.45-15.54Q452.55-17.95 454.81-20.68Q457.07-23.41 459.17-26.04L459.17-26.04L460.53-24.46Q458.43-21.84 456.28-19.06Q454.13-16.27 452.03-14.17L452.03-14.17Q449.30-11.13 446.51-8.45Q443.73-5.77 441.00-3.78Q438.27-1.78 435.65-0.63Q433.02 0.53 430.71 0.53L430.71 0.53Q426.51 0.53 424.94-1.26Q423.36-3.04 423.36-5.88L423.36-5.88Q423.36-8.08 424.31-10.87Q425.25-13.65 426.62-16.48L426.62-16.48Q423.57-13.13 420.63-10.13Q417.69-7.14 414.75-4.83L414.75-4.83Q411.50-2.31 408.71-0.79Q405.93 0.73 403.52 0.73L403.52 0.73Q399.84 0.73 398.27-1.84Q396.69-4.41 396.69-8.08L396.69-8.08Q396.69-10.71 397.53-14.02Q398.37-17.32 399.74-20.74Q401.10-24.15 402.83-27.51Q404.57-30.87 406.46-33.70L406.46-33.70Q409.40-37.59 413.02-41.11Q416.64-44.63 420.53-47.30Q424.41-49.98 428.51-51.55Q432.60-53.13 436.49-53.13L436.49-53.13Q439.64-53.13 441.37-51.61Q443.10-50.09 443.10-47.04L443.10-47.04Q443.10-45.57 442.79-43.68L442.79-43.68L449.09-52.92L462.53-52.92L450.45-36.96Q442.58-26.56 435.23-15.85L435.23-15.85Q434.39-14.70 433.34-13.07Q432.29-11.45 431.34-9.71Q430.40-7.98 429.71-6.35Q429.03-4.72 429.03-3.46L429.03-3.46Q429.03-1.68 431.24-1.68L431.24-1.68Q433.23-1.68 435.49-2.73Q437.75-3.78 440.21-5.67Q442.68-7.56 445.25-10.08Q447.83-12.60 450.45-15.54ZM413.60-6.40L413.60-6.40Q416.96-9.13 420.53-12.81Q424.10-16.48 427.56-20.79L427.56-20.79Q430.50-24.15 433.02-28.04Q435.54-31.92 437.54-35.70L437.54-35.70Q438.80-38.12 439.95-41.05Q441.11-43.99 441.11-47.04L441.11-47.04Q441.11-48.30 440.48-49.56Q439.85-50.82 438.27-50.82L438.27-50.82Q435.96-50.82 432.86-48.41Q429.77-45.99 426.51-42.42Q423.26-38.85 420.11-34.75Q416.96-30.66 414.54-27.30L414.54-27.30Q411.81-23.52 409.50-19.79Q407.19-16.06 405.51-12.81Q403.83-9.55 402.83-6.98Q401.84-4.41 401.84-2.83L401.84-2.83Q401.84-1.36 403.52-1.36L403.52-1.36Q405.41-1.36 407.98-2.68Q410.55-3.99 413.60-6.40Z" class="letter-5"/></g>
<g><path d="M777.42-122.64L777.42-122.64Q788.66-122.64 799.42-119.44Q810.18-116.23 819.74-109.09L819.74-109.09L818.37-107.63Q809.13-114.45 798.84-117.44Q788.55-120.44 777.63-120.44L777.63-120.44Q765.77-120.44 754.11-117.07Q742.46-113.71 731.54-107.78Q720.62-101.85 710.75-93.77Q700.88-85.68 692.42-76.28Q683.97-66.88 677.30-56.54Q670.64-46.20 666.23-35.80L666.23-35.80Q662.97-27.61 660.98-18.95Q658.98-10.29 658.98-2.73L658.98-2.73Q658.98 3.99 660.45 10.24Q661.92 16.48 665.07 21.89Q668.22 27.30 673.05 31.76Q677.88 36.23 684.71 39.48L684.71 39.48L684.50 41.16Q675.78 37.17 669.53 31.97Q663.29 26.77 659.30 20.63Q655.31 14.49 653.42 7.56Q651.53 0.63 651.53-6.83L651.53-6.83Q651.53-7.56 651.53-8.08Q651.53-8.61 651.53-9.03Q651.53-9.45 651.53-9.97Q651.53-10.50 651.63-11.34L651.63-11.34Q644.18-1.47 635.04 7.19Q625.91 15.85 615.35 22.26Q604.80 28.66 592.88 32.39Q580.97 36.12 568.05 36.12L568.05 36.12Q558.29 36.12 550.41 33.70Q542.54 31.29 536.76 26.67Q530.99 22.05 527.36 15.49Q523.74 8.92 522.38 0.53L522.38 0.53Q518.28-0.10 514.29-1.57L514.29-1.57Q509.25-3.46 505.84-6.35Q502.43-9.24 500.33-12.91Q498.23-16.59 497.33-20.79Q496.44-24.99 496.44-29.61L496.44-29.61Q496.44-39.06 499.22-48.56Q502.01-58.06 506.68-67.04Q511.35-76.02 517.44-84.21Q523.53-92.40 530.25-99.33L530.25-99.33Q538.23-107.63 547.68-114.66Q557.13-121.69 567.68-126.89Q578.24-132.09 589.73-135.03Q601.23-137.97 613.52-137.97L613.52-137.97Q629.90-137.97 641.50-133.25Q653.10-128.52 660.45-120.44Q667.80-112.35 671.21-101.69Q674.63-91.03 674.63-79.06L674.63-79.06Q674.63-75.39 674.31-71.56Q674.00-67.72 673.47-64.05L673.47-64.05Q682.40-76.02 694.10-86.68Q705.81-97.33 719.30-105.31Q732.80-113.30 747.60-117.97Q762.41-122.64 777.42-122.64ZM645.65-20.68L645.65-20.68Q649.01-25.72 651.95-30.97Q654.89-36.23 657.41-41.89L657.41-41.89Q662.87-53.66 665.91-65.26Q668.96-76.86 668.96-87.47L668.96-87.47Q668.96-97.02 666.12-105.31Q663.29-113.61 657.04-119.75Q650.79-125.89 640.92-129.36Q631.05-132.82 616.98-132.82L616.98-132.82Q605.43-132.82 594.25-130.04Q583.07-127.26 572.51-122.27Q561.96-117.28 552.30-110.46Q542.64-103.63 534.14-95.44L534.14-95.44Q528.15-89.56 521.90-81.90Q515.66-74.23 510.51-65.57Q505.37-56.91 502.11-47.67Q498.86-38.43 498.86-29.40L498.86-29.40Q498.86-25.52 499.75-21.95Q500.64-18.38 502.64-15.33Q504.63-12.29 507.83-9.92Q511.04-7.56 515.76-6.19L515.76-6.19Q517.44-5.67 518.86-5.41Q520.28-5.14 521.75-4.93L521.75-4.93Q521.54-6.09 521.59-7.19Q521.64-8.29 521.64-9.66L521.64-9.66Q521.64-19.95 524.63-30.24Q527.63-40.53 533.09-49.93Q538.55-59.32 546.11-67.52Q553.67-75.70 562.80-81.69Q571.94-87.67 582.38-91.09Q592.83-94.50 604.07-94.50L604.07-94.50Q608.79-94.50 612.99-94.08Q617.19-93.66 621.29-92.82Q625.38-91.98 629.53-90.72Q633.68-89.46 638.09-87.67L638.09-87.67L637.77-86.63Q630.42-88.83 624.07-89.93Q617.72-91.03 610.79-91.03L610.79-91.03Q600.18-91.03 589.84-87.99Q579.50-84.94 570.15-79.43Q560.81-73.92 552.88-66.20Q544.95-58.48 539.12-49.19Q533.30-39.90 530.04-29.35Q526.79-18.79 526.79-7.46L526.79-7.46L526.79-4.62Q527.42-4.62 527.99-4.62Q528.57-4.62 529.20-4.72L529.20-4.72Q539.91-5.25 550.15-9.82Q560.39-14.38 568.79-21.89Q577.19-29.40 583.07-39.27Q588.95-49.14 591.15-60.16L591.15-60.16L592.20-60.06L592.20-58.80Q592.20-58.48 592.25-58.22Q592.31-57.96 592.31-57.75L592.31-57.75Q592.31-50.50 589.68-43.31Q587.06-36.12 582.49-29.66Q577.92-23.20 571.83-17.64Q565.74-12.07 558.76-7.98Q551.78-3.88 544.27-1.52Q536.76 0.84 529.41 0.94L529.41 0.94L527.42 0.94Q528.57 7.88 531.51 13.81Q534.45 19.74 539.18 24.10Q543.90 28.45 550.46 30.92Q557.03 33.39 565.43 33.39L565.43 33.39Q573.30 33.39 581.18 31.08Q589.05 28.77 596.56 24.83Q604.07 20.89 611.05 15.59Q618.03 10.29 624.33 4.25Q630.63-1.78 635.99-8.14Q641.34-14.49 645.65-20.68Z" class="letter-6"/></g>
<g><path d="M707.28-49.98L707.28-49.98Q707.28-50.82 706.76-50.82L706.76-50.82Q705.18-50.82 702.24-47.67Q699.30-44.52 695.42-39.48L695.42-39.48Q692.69-36.02 689.38-31.76Q686.07-27.51 682.92-23.41L682.92-23.41L681.56-24.99Q683.03-26.77 684.55-28.82Q686.07-30.87 687.44-32.66L687.44-32.66L693.84-40.84Q694.26-41.37 694.73-41.95Q695.21-42.52 695.63-43.05L695.63-43.05Q696.78-44.52 698.20-46.25Q699.62-47.98 701.14-49.45Q702.66-50.92 704.18-51.92Q705.71-52.92 707.07-52.92L707.07-52.92Q709.59-52.92 711.11-51.40Q712.64-49.88 712.64-47.25L712.64-47.25Q712.64-45.15 711.59-42.31Q710.54-39.48 708.86-36.33Q707.18-33.18 705.08-29.77Q702.98-26.36 700.77-22.99L700.77-22.99L698.78-20.05Q696.89-17.22 695.15-14.59Q693.42-11.97 692.16-9.71Q690.90-7.46 690.11-5.62Q689.33-3.78 689.33-2.63L689.33-2.63Q689.33-1.36 690.90-1.36L690.90-1.36Q693.95-1.36 697.36-3.52Q700.77-5.67 704.24-9.03L704.24-9.03Q707.60-12.29 711.06-16.59Q714.53-20.89 717.89-25.30L717.89-25.30Q720.30-29.40 722.93-33.60Q725.55-37.80 727.97-41.48L727.97-41.48Q730.28-45.05 732.32-48.09Q734.37-51.13 735.63-52.92L735.63-52.92L749.07-52.92L737.42-37.59Q733.53-32.45 729.44-26.77Q725.34-21.11 721.77-15.85L721.77-15.85Q720.93-14.59 719.83-12.97Q718.73-11.34 717.78-9.61Q716.84-7.88 716.15-6.25Q715.47-4.62 715.47-3.46L715.47-3.46Q715.47-1.68 717.78-1.68L717.78-1.68Q721.14-1.68 725.50-4.83Q729.86-7.98 734.48-12.81L734.48-12.81Q737.21-15.64 740.04-19.16Q742.88-22.68 745.61-26.04L745.61-26.04L746.97-24.46L744.77-21.63Q742.67-19.11 740.30-16.27Q737.94-13.44 735.84-11.23L735.84-11.23Q733.43-8.82 731.01-6.67Q728.60-4.51 726.18-2.94Q723.77-1.36 721.51-0.42Q719.25 0.53 717.26 0.53L717.26 0.53Q713.06 0.53 711.48-1.26Q709.91-3.04 709.91-5.88L709.91-5.88Q709.91-7.98 710.64-10.39Q711.38-12.81 712.53-15.22L712.53-15.22Q710.75-13.02 708.86-10.97Q706.97-8.92 705.29-7.25L705.29-7.25Q701.82-3.99 698.09-1.63Q694.37 0.73 690.90 0.73L690.90 0.73Q684.81 0.73 682.34-1.21Q679.88-3.15 679.88-6.30L679.88-6.30Q679.88-8.40 680.87-10.97Q681.87-13.54 683.50-16.38Q685.13-19.21 687.28-22.15Q689.43-25.09 691.74-28.14L691.74-28.14L696.47-34.02Q698.36-36.33 700.30-38.80Q702.24-41.27 703.76-43.42Q705.29-45.57 706.28-47.30Q707.28-49.03 707.28-49.98Z" class="letter-7"/></g>
</svg>